      <svg
        viewBox="0 0 606.09 263.36"
        xmlns="http://www.w3.org/2000/svg"
      >
        <g fill="#e6e5a4">
          <path
            d="m47.96 114.88c-25.83 0-38.75-23.92-38.75-52.84s12.92-52.83 38.75-52.83c18.64 0 30.97 12.91 30.97 35.08h-17.91c-.59-9.69-5.58-14.82-10.86-14.82-9.98 0-15.12 13.94-15.12 32.58s5.14 32.44 15.12 32.44c6.02 0 10.57-3.52 11.74-16.14h17.91c0 21.28-12.03 36.54-31.85 36.54zm87.62-1.47h-24.95v-63.11c0-26.27 15.26-41.09 33.76-41.09s33.76 14.82 33.76 41.09v63.11h-24.95v-32.73h-17.61v32.73zm17.61-73.09c0-7.93-3.96-12.18-8.81-12.18s-8.81 4.26-8.81 12.18v21.43h17.61v-21.43zm132.46 73.09h-26.56l-12.33-34.34h-8.37v34.34h-24.95v-102.73h35.81c18.79 0 34.2 15.41 34.2 34.2 0 10.86-5.14 20.55-13.06 26.86l15.26 41.68zm-39.33-84.68h-7.93v32.29h7.93c5.43 0 11.15-2.94 11.15-16.14s-5.72-16.14-11.15-16.14zm70.15-18.05h66.04v18.93h-41.09v21.95h30.82v18.93h-30.82v23.99h41.09v18.93h-66.04v-102.73zm100.39 0h66.04v18.93h-41.09v21.95h30.82v18.93h-30.82v23.99h41.09v18.93h-66.04v-102.73zm171.94 102.73h-26.56l-12.33-34.34h-8.37v34.34h-24.95v-102.73h35.81c18.79 0 34.2 15.41 34.2 34.2 0 10.86-5.14 20.55-13.06 26.86l15.26 41.68zm-39.33-84.68h-7.93v32.29h7.93c5.43 0 11.15-2.94 11.15-16.14s-5.72-16.14-11.15-16.14zm-536.94 140.14v-18.93h76.32v18.93h-25.68v83.8h-24.95v-83.8zm133.34-20.4c24.51 0 38.01 23.92 38.01 52.83s-13.5 52.84-38.01 52.84-38.01-23.92-38.01-52.84 13.5-52.83 38.01-52.83zm0 86.74c10.71 0 12.18-15.26 12.18-33.9s-1.47-33.9-12.18-33.9-12.18 15.26-12.18 33.9 1.47 33.9 12.18 33.9zm120.79 17.46v-49.17l-16.14 31.7-16.14-31.7v49.17h-20.55v-102.73h14.97l21.72 48.87 21.72-48.87h14.97v102.73zm116.56-75.73c0 7.04-2.93 13.36-7.78 18.2 9.1 5.58 15.12 15.26 15.12 26.12 0 17.32-15.12 31.41-33.61 31.41h-37.13v-102.73h34.49c15.85 0 28.91 12.18 28.91 27zm-23.92.88c0-7.19-4.7-11.15-10.42-11.15h-4.11v22.16h4.11c5.72 0 10.42-4.11 10.42-11.01zm5.43 42.56c0-9.39-6.16-14.82-13.94-14.82h-6.02v29.65h6.02c7.78 0 13.94-5.28 13.94-14.82zm87.54-71.91c24.51 0 38.01 23.92 38.01 52.83s-13.5 52.84-38.01 52.84-38.01-23.92-38.01-52.84 13.5-52.83 38.01-52.83zm0 86.74c10.71 0 12.18-15.26 12.18-33.9s-1.47-33.9-12.18-33.9-12.18 15.26-12.18 33.9 1.47 33.9 12.18 33.9zm56.63-85.27h26.12l16.14 33.9 16.14-33.9h26.12l-29.79 61.2v41.53h-24.95v-41.53l-29.79-61.2z"
          />
          <path
            d="m144.38 3.46c23.27 0 39.51 19.27 39.51 46.85v68.87h-36.47v-32.73h-6.09v32.73h-36.47v-68.87c0-27.59 16.25-46.85 39.51-46.85m-3.05 52.54h6.09v-15.67c0-3.2-.94-6.42-3.05-6.42s-3.05 3.23-3.05 6.42v15.67m-93.35-52.54c22.31 0 36.73 16.03 36.73 40.83v5.76h-29.08l-.33-5.41c-.37-6.11-2.91-9.41-5.11-9.41-5.42 0-9.36 11.28-9.36 26.82s3.94 26.68 9.36 26.68c1.87 0 4.99 0 6.01-10.92l.49-5.23h28.91v5.76c0 25.3-15.11 42.3-37.61 42.3-27.04 0-44.5-23-44.5-58.59s17.45-58.59 44.49-58.59m504.43 1.47c22.03 0 39.95 17.92 39.95 39.95 0 10.82-4.35 21.02-12.06 28.56l16.75 45.73h-38.86l-10.88-30.32v30.32h-36.47v-114.25h41.57m-5.1 50.34h2.17c1.75 0 5.4 0 5.4-10.39s-3.64-10.39-5.4-10.39h-2.17v20.77m-58.63-50.34v30.45h-41.09v10.43h30.82v30.45h-30.82v12.47h41.09v30.45h-77.56v-114.24h77.56m-100.39 0v30.45h-41.09v10.43h30.82v30.45h-30.82v12.47h41.09v30.45h-77.56v-114.25zm-139.02 0c22.03 0 39.95 17.92 39.95 39.95 0 10.82-4.35 21.02-12.06 28.56l16.75 45.73h-38.86l-10.88-30.32v30.32h-36.47v-114.24zm-5.1 50.34h2.17c1.75 0 5.4 0 5.4-10.39s-3.64-10.39-5.4-10.39h-2.17v20.77m208.12 87.45c26.18 0 43.77 23.55 43.77 58.59s-17.59 58.59-43.77 58.59-43.77-23.55-43.77-58.59 17.59-58.59 43.77-58.59m0 86.74c5.76 0 6.42-16.06 6.42-28.15s-.67-28.14-6.42-28.14-6.42 16.06-6.42 28.14.67 28.15 6.42 28.15m-306.39-86.74c26.18 0 43.77 23.55 43.77 58.59s-17.59 58.59-43.77 58.59-43.77-23.55-43.77-58.59 17.59-58.59 43.77-58.59m0 86.74c5.76 0 6.42-16.06 6.42-28.15s-.67-28.14-6.42-28.14-6.42 16.06-6.42 28.14.67 28.15 6.42 28.15m456.76-85.27-33.24 68.29v45.97h-36.47v-45.97l-33.24-68.29h38.97l12.51 26.27 12.51-26.27h38.97m-248.33 0c19.12 0 34.67 14.7 34.67 32.76 0 6.1-1.84 12.02-5.26 17.15 7.98 6.94 12.6 16.72 12.6 27.17 0 20.49-17.66 37.17-39.37 37.17h-42.89v-114.25zm-3.78 38.65c1.91-.62 3.01-2.4 3.01-5 0-2.78-1.06-4.56-3.01-5.17zm0 46.62h.26c5.2 0 8.18-3.3 8.18-9.06s-3.06-9.06-8.18-9.06h-.26v18.13m-57.56-85.27v114.25h-32.06v-30.93l-10.39 20.39-10.39-20.39v30.93h-32.06v-114.25h24.47l17.98 40.45 17.98-40.45zm-198.36 0v30.45h-25.68v83.8h-36.47v-83.8h-25.69v-30.45h87.83m49.77-144.18c-25.3 0-42.97 20.69-42.97 50.31v68.87c0 1.91 1.55 3.46 3.46 3.46h79.03c1.91 0 3.46-1.55 3.46-3.46v-68.87c0-29.62-17.67-50.31-42.97-50.31zm-96.42 0c-14.39 0-26.54 5.99-35.14 17.31-8.39 11.04-12.82 26.51-12.82 44.74s4.43 33.69 12.82 44.73c8.6 11.33 20.76 17.31 35.14 17.31 12.05 0 22.36-4.43 29.82-12.82 7.35-8.27 11.24-19.66 11.24-32.94v-5.76c0-1.91-1.55-3.46-3.46-3.46h-28.91c-1.78 0-3.28 1.36-3.44 3.14l-.49 5.23c-.63 6.77-2 7.77-2.01 7.78-.05 0-.36 0-.56 0-1.63 0-5.9-7.14-5.9-23.22s3.89-22.68 5.66-23.32c.5.49 1.67 2.27 1.91 6.12l.33 5.41c.11 1.82 1.62 3.25 3.45 3.25h29.08c1.91 0 3.46-1.55 3.46-3.46v-5.76c0-13.04-3.76-24.11-10.88-32.03-7.22-8.01-17.35-12.25-29.3-12.25zm504.43 1.47h-41.57c-1.91 0-3.46 1.55-3.46 3.46v114.25c0 1.91 1.55 3.46 3.46 3.46h36.47c1.91 0 3.46-1.55 3.46-3.46v-10.47l4.18 11.64c.49 1.37 1.79 2.29 3.25 2.29h38.86c1.13 0 2.19-.55 2.83-1.48.65-.93.8-2.11.41-3.17l-16-43.69c7.45-8.06 11.53-18.42 11.53-29.41 0-23.94-19.47-43.41-43.41-43.41zm-63.73 0h-77.56c-1.91 0-3.46 1.55-3.46 3.46v114.25c0 1.91 1.55 3.46 3.46 3.46h77.56c1.91 0 3.46-1.55 3.46-3.46v-30.45c0-1.91-1.55-3.46-3.46-3.46h-37.64v-5.56h27.37c1.91 0 3.46-1.55 3.46-3.46v-30.45c0-1.91-1.55-3.46-3.46-3.46h-27.37v-3.52h37.64c1.91 0 3.46-1.55 3.46-3.46v-30.44c0-1.91-1.55-3.46-3.46-3.46zm-100.39 0h-77.56c-1.91 0-3.46 1.55-3.46 3.46v114.25c0 1.91 1.55 3.46 3.46 3.46h77.56c1.91 0 3.46-1.55 3.46-3.46v-30.45c0-1.91-1.55-3.46-3.46-3.46h-37.64v-5.56h27.37c1.91 0 3.46-1.55 3.46-3.46v-30.45c0-1.91-1.55-3.46-3.46-3.46h-27.37v-3.52h37.64c1.91 0 3.46-1.55 3.46-3.46v-30.44c0-1.91-1.55-3.46-3.46-3.46zm-139.02 0h-41.57c-1.91 0-3.46 1.55-3.46 3.46v114.25c0 1.91 1.55 3.46 3.46 3.46h36.47c1.91 0 3.46-1.55 3.46-3.46v-10.47l4.18 11.64c.49 1.37 1.79 2.29 3.25 2.29h38.86c1.13 0 2.19-.55 2.83-1.48.65-.93.8-2.11.41-3.17l-16-43.69c7.45-8.06 11.53-18.42 11.53-29.41 0-23.94-19.47-43.41-43.41-43.41zm203.02 137.79c-28.25 0-47.23 24.94-47.23 62.05s18.98 62.05 47.23 62.05 47.23-24.94 47.23-62.05-18.98-62.05-47.23-62.05zm0 86.56c-.86-1.03-2.97-5.5-2.97-24.51s2.11-23.48 2.97-24.51c.86 1.03 2.97 5.5 2.97 24.51s-2.11 23.48-2.97 24.51zm-306.39-86.56c-28.25 0-47.23 24.94-47.23 62.05s18.98 62.05 47.23 62.05 47.23-24.94 47.23-62.05-18.98-62.05-47.23-62.05zm0 86.56c-.86-1.03-2.97-5.5-2.97-24.51s2.11-23.48 2.97-24.51c.86 1.03 2.97 5.5 2.97 24.51s-2.11 23.48-2.97 24.51zm456.76-85.09h-38.97c-1.33 0-2.55.77-3.12 1.97l-9.39 19.72-9.39-19.72c-.57-1.2-1.79-1.97-3.12-1.97h-38.97c-1.19 0-2.3.61-2.93 1.62s-.7 2.27-.18 3.34l32.89 67.57v45.17c0 1.91 1.55 3.46 3.46 3.46h36.47c1.91 0 3.46-1.55 3.46-3.46v-45.17l32.89-67.57c.52-1.07.45-2.33-.18-3.34s-1.74-1.62-2.93-1.62zm-248.33 0h-40.25c-1.91 0-3.46 1.55-3.46 3.46v114.25c0 1.91 1.55 3.46 3.46 3.46h42.89c23.61 0 42.82-18.22 42.82-40.62 0-10.35-4.21-20.32-11.64-27.78 2.82-5.11 4.3-10.77 4.3-16.54 0-19.97-17.1-36.22-38.13-36.22zm-61.34 0h-24.47c-1.37 0-2.6.8-3.16 2.05l-14.82 33.35-14.82-33.35c-.55-1.25-1.79-2.05-3.16-2.05h-24.47c-1.91 0-3.46 1.55-3.46 3.46v114.25c0 1.91 1.55 3.46 3.46 3.46h32.06c1.91 0 3.46-1.55 3.46-3.46v-16.53l3.85 7.56c.59 1.16 1.78 1.89 3.08 1.89s2.49-.73 3.08-1.89l3.85-7.56v16.53c0 1.91 1.55 3.46 3.46 3.46h32.06c1.91 0 3.46-1.55 3.46-3.46v-114.25c0-1.91-1.55-3.46-3.46-3.46zm-198.36 0h-87.83c-1.91 0-3.46 1.55-3.46 3.46v30.45c0 1.91 1.55 3.46 3.46 3.46h22.23v80.35c0 1.91 1.55 3.46 3.46 3.46h36.47c1.91 0 3.46-1.55 3.46-3.46v-80.35h22.23c1.91 0 3.46-1.55 3.46-3.46v-30.45c0-1.91-1.55-3.46-3.46-3.46z"
          />
        </g>
      </svg>