<svg viewBox="0 0 500 500" xmlns="http://www.w3.org/2000/svg"><path d="m0 0h500v500h-500z" fill="#c5638c"/><g fill="#0f8073"><path d="m500 266.59c-2.34-.61-4.76-.94-7.23-.94-14.22 0-26.68 10.56-33.59 26.38-1.19-.41-2.37-.82-3.58-1.22-3.32-1.11-6.61-2.22-9.87-3.35-1.25-11.95-4.51-24.58 2.47-35.25 9.62-14.7 33.24-22.9 51.79-32.48v-53.6c-8.68-1.88-19.56-1.54-32.59 2.34-37.79 11.25-55.8 33.12-76.79 43.75-10 5.06-17.83 6.71-25.58 7.6 4.55-39.11 62.4-60.06 75.09-97.61 4.34-12.86 3.53-26.87-1.64-39.72 14.45-13.87 3.98-40.87 5.65-62.85.63-8.28 2.44-14.42 4.59-19.63h-82.1c.02 12.1 3.06 25.34 8 37.84-5.33-.48-10.26-.55-14.84-.27-1.26-2.39-2.64-4.7-4.16-6.88-12.04-17.26-34.31-21.34-48.69-30.68h-86.14c-8.46 32.57-24.22 54.4-24.22 92.65 0 5.28.25 10.36.71 15.24-24.34 17.93-42.6 58.87-43.99 96.97-10.45 4.14-22.6 8.85-36.51 8.85-25.61 0-54.93-11.44-67.65 15.06-12.14 25.3 12.87 80.66 61.29 73.47 21.4-3.18 39.26-13.88 52.69-27.23 4.9 15.07 11.34 28.28 18.72 39.33v.36c0 52.06 39.87 86.43 43.36 125.58 2.2 24.77-.2 43.57-4.4 59.73h86.14c-7.29-4.74-12.56-10.83-13.42-20.68-2.04-23.28 27.39-25.79 49.31-31.12 28.93-7.04 48.99-28.25 40.21-60.32-8.19-29.9-33.16-36.63-51.17-30.72-21.82 7.16-49.46 33.66-67.65 24.39-12.43-6.34-13.02-18.4-10.83-32 24.89-11.48 33.99-49.11 66.91-49.11 39.32 0 57.08 50.39 69.96 81.31 6.84 16.42 12.52 38.87 21.27 57.88-20.31 4.14-40.07 21.95-44.3 51.15-.43 2.97-.63 6.06-.62 9.22h82.1c3.37-8.17 7.57-14.03 9.36-22.19 11.29.93 22.74-.71 33.41-4.78 2.62 3.07 5.48 5.78 8.51 8.12v-214.56z"/><path d="m148.94 365.22c-15.68-26.79-46.59-48.02-85.88-48.02-10.42 0-20.97 1.9-30.99 5.79.02-.76.04-1.53.04-2.32 0-26.93-13.84-49.33-32.11-54.08v214.59c8.08 6.24 17.42 9.76 27.06 9.76 24.01 0 34.84-15.64 45.2-27.98 2.91 13.18 7.51 25.65 13.19 37.05h84.08c1.77-27.24 23.58-41.23 23.58-73.58 0-28.49-14.03-53.97-44.18-61.2z"/><path d="m0 219.73c14.95-7.72 26.61-16.35 25-30.02-1.17-9.98-9.64-20.26-25-23.58z"/><path d="m85.44 0c21.97 44.05 60.24 72.05 80.5 62.53 19.39-9.11 3.47-33.13 3.47-59.02 0-1.2.05-2.36.13-3.51h-84.09z"/></g></svg>