<svg height="188.352147" viewBox="0 0 188.3809968 188.352147" width="188.380997" xmlns="http://www.w3.org/2000/svg"><circle cx="94.176074" cy="94.176074" fill="#fef2dc" r="94.176074"/><path d="m188.3167467 96.7311142c-16.7058105 10.0908813-25.059082 14.1502686-31.9602051 15.3670654-6.9147949 1.2192383-10.270752-2.6453857-9.5681152-10.7893066l2.8200684-25.4500122 35.4973145-6.2591553c-1.8603516-6.8995972-4.4833984-13.4852295-7.7758789-19.6612549l-25.4404297 4.4858398 2.465332-23.4266968-26.6218262 4.6941528-2.4631348 23.4262695-25.9296875 4.5720825-2.2807617 21.4345703 25.9296875-4.5721436-.8447266 8.3480225-6.1325684 4.6461792c-37.717041 27.6816406-54.0192871 37.3302612-67.6738281 39.737915-13.4846191 2.3776855-23.1425781-2.8712769-25.0629883-13.7619019-2.1335449-12.1002197 6.0847168-22.1040039 20.2590332-24.6033325 4.3208008-.7618408 7.8684082-.8527222 11.3071289-.5675049l-1.7207031 13.4922485 23.3359375-4.1146851 2.8598633-27.2401733c-12.769043-4.6991577-25.9680176-5.7576294-39.9699707-3.2887573-18.2844239 3.2239993-32.0118914 12.1225736-39.1666766 24.4021757.8012695 21.2868042 8.5577898 40.9438329 21.2123309 56.3374486 7.8916016 2.2590942 17.1674805 2.6344604 27.3503418.8389893 17.8029785-3.1391602 38.6491699-14.3002319 64.5209961-34.3687134l-.0002441-.0012207 7.0478516-5.5200806c1.9699707 16.2285767 14.0783691 24.253479 33.2658691 20.8702393 8.5769043-1.5123291 17.7419434-4.9928589 29.9060059-11.6210938 2.8991699-8.6445312 4.5793457-17.8479004 4.8339844-27.4071655z" fill="#a1cf70"/><g fill="#231e5e"><path d="m3.0433092 93.3645972c.0041504-.0076294.0087891-.0150757.0129395-.0227051-.0041504.0053711-.0085449.0105591-.0126953.0159302 0 .0022583-.0002441.0045166-.0002441.0067749z"/><path d="m119.1824693 116.5953101c.0019531-.0014648.003418-.0039062.0053711-.0048828l1.2287598-.9625244c-.0351562-.2463379-.0751953-.4885254-.1057129-.7387695l-7.0478516 5.5200806.0002441.0012207c-6.7893066 5.2664185-13.2243652 9.9033203-19.3574219 13.9589233 7.8447266-4.8634644 16.2202148-10.7489014 25.2766113-17.7740479z"/><path d="m122.4834947 85.5498999-2.3596191 1.7875977c-37.5341797 27.5483398-53.8261719 37.1386719-67.0458984 39.4702148-6.2866211 1.1079102-11.7807617.5053711-15.8876953-1.7441406-4.0068359-2.1938477-6.5791016-5.9291992-7.4379883-10.8012695-.96875-5.4946289.309082-10.5737305 3.6953125-14.6884766.6552734-.7965088 1.3986816-1.5273438 2.1850586-2.2233887-3.0136719 1.3927612-5.5634766 3.2175293-7.5668945 5.3846436-1.5583496 3.6936646-2.0129395 7.821167-1.2675781 12.0477295 1.0224609 5.8007812 4.1176758 10.265625 8.9511719 12.9121094 4.7119141 2.5800781 10.8852539 3.2954102 17.8491211 2.0668945 8.0664062-1.4223633 16.8308105-5.1723633 30.2578125-13.5648193 8.6845703-5.7001953 19.1450195-13.1016235 32.1555176-22.6502686l6.1325684-4.6461792.3391113-3.350647z"/><path d="m125.8741197 53.3703345-21.7941895 3.8426514c-.6586914.1157227-1.1606445.6538086-1.2314453 1.3183594l-.4921875 4.6269531 3.074707-.5421753.28125-2.6448364 19.8356934-3.4974976z"/><path d="m58.735692 68.4004859c8.2290039 0 16.1601562 1.362793 23.9658203 4.1025391l-2.6186523 24.9458008-3.0229492.53302-.3259277 3.1033936 4.982666-.8786011c.6591797-.1162109 1.1616211-.6547852 1.2314453-1.3203125l2.8598633-27.2402344c.0717773-.6831055-.3291016-1.3271484-.9736328-1.5644531-13.0336914-4.796875-26.3632812-5.8964844-40.7480469-3.3579102-15.0668945 2.65625-27.8540039 9.4682617-36.0063477 19.1811523-1.9614258 2.3369751-3.6328125 4.8287354-5.0236816 7.4370117 3.8967285-5.0725708 9.0554199-9.4454956 15.2763672-12.8966675 7.140625-5.2506104 16.1535645-8.982605 26.2741699-10.767395 4.8251953-.8505859 9.5229492-1.2773438 14.1289062-1.2773438z"/><path d="m168.8748521 146.4703101c-13.9667969 19.9462891-34.8642578 33.2592773-58.84375 37.487793-5.3330078.9399414-10.6367188 1.394043-15.8740234 1.394043-26.2612305-.0011597-50.7392578-11.4378052-67.7075195-30.2533569-1.7021484-.2954102-3.3486328-.6742554-4.9418945-1.1258545 17.5712891 21.2943115 44.0893555 34.3807983 72.6479492 34.3792114 5.4067383 0 10.8911133-.4692383 16.3959961-1.4399414 24.769043-4.3671875 46.3544922-18.1186523 60.7802734-38.7211914 5.2602539-7.5119629 9.3259277-15.6105347 12.173584-24.0653076-1.3583984.7404175-2.6716309 1.4324341-3.9584961 2.0959473-2.670166 7.0820923-6.217041 13.8864136-10.6721191 20.2486572z"/><path d="m186.9300279 77.8335913c-.4916992-2.7885132-1.1184082-5.5299072-1.8508301-8.229187l-2.9672852.5231934c.7407227 2.6968384 1.3723145 5.4373169 1.8640137 8.2265015.9626465 5.4595947 1.402832 10.9281006 1.3828125 16.3570557-12.0473633 6.9966431-18.703125 9.9293823-24.2626953 10.9100342-2.6513672.4658203-4.6455078.1088867-5.9272461-1.0644531-1.5683594-1.4350586-2.2202148-4.2426758-1.8896484-8.0830078l2.4030762-21.6858521-3.0783691.5428467-2.3100586 20.8490601c-.4233398 4.9091797.5351562 8.472168 2.8496094 10.590332 2.0053711 1.8354492 4.8554688 2.4423828 8.4736328 1.8051758 5.657959-.9975586 12.2514648-3.8225708 23.659668-10.3592529-.0048828.1173096-.0151367.2340088-.0205078.3512573.9992676-.595459 2.0302734-1.2139282 3.0959473-1.857666.0021973-.0942383.0085449-.1881104.010498-.2824097.0249023-1.1582031.0224609-2.3190308.0046387-3.480896-.0766602-5.0209351-.5480957-10.071106-1.4372559-15.1127319z"/><path d="m78.3719224 4.4097632c5.3481445-.9428711 10.7041016-1.4086914 16.0234375-1.4086914 18.5327148 0 36.5952148 5.6582031 52.0927734 16.5097656 2.6369629 1.8464355 5.1499023 3.8217163 7.5493164 5.9015503l-21.5644531 3.8025513c-.6591797.1162109-1.1616211.6547852-1.2314453 1.3203125l-.4863281 4.6235962 3.0734863-.5419312.2780762-2.644165 22.7597656-4.0133667c.2382812.2245483.4658203.4581909.701416.6850586l-2.170166 20.6227417c-.0493164.46875.1240234.9331055.46875 1.2543945.3442383.3203125.8212891.4643555 1.2832031.3798828l15.7529297-2.7776489c.4541016.7770386.8730469 1.5747681 1.3041992 2.3652954l3.1306152-.552002c-.4206543-.7923584-.8293457-1.5916138-1.2724609-2.3709106-.529541-.9315186-1.0939941-1.8417969-1.6552734-2.7540894-3.8518066-6.260498-8.4445801-12.0539551-13.7077637-17.2828979-.9506836-.9445801-1.9216309-1.8711548-2.9157715-2.7778931-3.0061035-2.7418823-6.189209-5.3256836-9.5773926-7.697998-20.602539-14.4257812-45.5883788-19.9663086-70.3574218-15.5976562-24.7690429 4.3671875-46.3544922 18.1186523-60.7802734 38.7207031-11.934082 17.043396-17.7595215 37.088562-16.9523926 57.5270996.8771973-1.4979858 1.8522949-2.9483032 2.9248047-4.3456421.1274414-18.3113403 5.7565918-36.1394043 16.4846191-51.4607544 13.9663086-19.9458008 34.8642578-33.2587891 58.84375-37.4873047zm92.8706055 40.9608154-12.652832 2.2310791 1.7080078-16.2319946c4.1162109 4.3134766 7.7768555 9.0005493 10.9448242 14.0009155z"/></g><path d="m131.7615709 54.2749985 2.0671387-19.6580811-3.0734863.5419312-1.8588867 17.6786499-3.0222168.5328369-.3261719 3.1034546 4.9821777-.878479c.6591797-.1162109 1.1616211-.6547852 1.2314453-1.3203125z" fill="#180f30"/><path d="m48.7942857 91.3965805c3.277832-.5776367 6.2880859-.7880859 9.3569336-.6503906l-1.5185547 11.9082031c-.0605469.4731445.1074219.9467773.4526367 1.2753906.3447266.3291016.8256836.4760742 1.2954102.3916016l18.3532715-3.236145.3259277-3.1033936-17.1938477 3.0314331 1.4628906-11.4711914c.0517578-.40625-.0644531-.8154297-.3217773-1.1337891-.2578125-.3178711-.6337891-.5170898-1.0419922-.5507812-3.8823242-.3222656-7.5981445-.1367188-11.6914062.5849609-7.309082 1.2885742-13.2373047 4.4785156-17.1430664 9.2250977-1.2817383 1.5578003-2.3032227 3.2615967-3.0649414 5.0675049 2.003418-2.1671143 4.5532227-3.9918823 7.5668945-5.3846436 3.3464355-2.9623413 7.8215332-5.012085 13.1616211-5.9538574z" fill="#180f30"/><path d="m122.4834947 85.5499008-.3391113 3.350647-6.1325684 4.6461792c-13.010498 9.548645-23.4709473 16.9500732-32.1555176 22.6502686 9.7307129-6.0819092 21.9052734-14.5971069 38.0610352-26.4542236l6.1328125-4.6464844c.3320312-.2519531.5444336-.6303711.5864258-1.0449219l.8447266-8.3481445c.0473633-.4672852-.1269531-.9301758-.4711914-1.25-.3447266-.3198242-.8208008-.4638672-1.28125-.3779297l-23.9667969 4.2260742 1.6689453-15.6852417-3.074707.5421753-1.7885742 16.8076172c-.0498047.46875.1235352.9335938.4677734 1.2548828s.8208008.4638672 1.2841797.3808594l23.9775391-4.2280273-.5795898 5.7260742-3.2341309 2.4501953z" fill="#180f30"/><path d="m155.9754381 72.1412094 25.4262695-4.4836426c.2473145.8189697.4829102 1.6428223.7102051 2.4700317l2.9672852-.5231934c-.2246094-.8275757-.4572754-1.6519165-.701416-2.4715576-.2878418-.9664307-.5671387-1.9365234-.8847656-2.8901978-1.6520996-4.9620361-3.7280273-9.7339478-6.1555176-14.305542l-3.1306152.552002c2.484375 4.5546875 4.607666 9.3173828 6.2883301 14.2821655l-26.1472168 4.6106567c-.65625.1157227-1.1572266.6499023-1.2304688 1.3120117l-.5136719 4.6367798 3.0783691-.5428467.2932129-2.6466675z" fill="#180f30"/><path d="m185.2561998 98.5672958c-.3562012 7.7074585-1.684082 15.3027954-3.9689941 22.6380005-8.8474121 4.3691406-16.0700684 6.8601685-22.9709473 8.0770264-9.6376953 1.6987305-17.6391602.4394531-23.1450195-3.6401367-4.6933594-3.4775391-7.5097656-8.8388672-8.3710938-15.9335938-.0654297-.5375977-.4150391-.9980469-.9150391-1.2050781-.5-.206543-1.0732422-.1289062-1.4990234.2050781l-7.0449219 5.5180664c-25.612793 19.8681641-46.503418 31.0151367-63.859375 34.0751953-13.4912109 2.3774414-25.5297852.9638672-34.8178711-4.0888672-.3615723-.1967163-.7087402-.4072266-1.0600586-.6138916-6.416748-9.9163818-11.0002441-21.2417603-13.1767578-33.5853271-.5732422-3.2514038-.9545898-6.5059204-1.1777344-9.7540283 1.5473633-4.4321899 3.921875-8.605835 7.128418-12.4261475 2.277832-2.7139282 4.954834-5.182312 7.954834-7.3883667-6.2209473 3.4511719-11.3796387 7.8240967-15.2763672 12.8966675-.0041504.0076294-.0087891.0150757-.0129395.0227051 0-.0022583.0002441-.0045166.0002441-.0067749-1.0725098 1.3973389-2.0476074 2.8476562-2.9248047 4.3456421.0300293.7592163.048584 1.5177612.0969238 2.2779541.1984863 3.1183472.5522461 6.2432251 1.0629883 9.3662109.0646973.3955688.1245117.7911987.1943359 1.1866455 1.7949219 10.1792603 5.1804199 19.6837158 9.8413086 28.3174438 1.2946777 2.3982544 2.6870117 4.729126 4.173584 6.9876099 1.8625488 2.829834 3.8789062 5.5389404 6.0197754 8.133606 1.5932617.4515991 3.2397461.8304443 4.9418945 1.1258545-1.8459473-2.046814-3.6062012-4.1777954-5.2668457-6.394104 5.925293 2.4559326 12.6645508 3.7197266 20.0065918 3.7197266 4.1015625 0 8.3867188-.3876953 12.8129883-1.168457 11.8825684-2.0947876 24.9052734-7.5881958 39.9035645-16.8865967 6.1330566-4.055603 12.5681152-8.6925049 19.3574219-13.9589233l-.0002441-.0012207 7.0478516-5.5200806c.0305176.2502441.0705566.4924316.1057129.7387695l3.8132324-2.9866943c1.309082 6.6264648 4.4443359 11.9204102 9.1552734 15.4116211 6.1845703 4.5825195 14.9848633 6.0292969 25.4516602 4.1835938 6.4697266-1.140686 13.1750488-3.3412476 21.1083984-7.0581665-.1269531.3496094-.2668457.6951294-.3981934 1.043396 1.2868652-.6635132 2.6000977-1.3555298 3.9584961-2.0959473.0930176-.2763062.1965332-.5495605.2868652-.8266602.4311523-1.3214111.8308105-2.6519165 1.2021484-3.989624 2.0390625-7.347168 3.1672363-14.9268799 3.357666-22.5997925-1.0656738.6437378-2.0966797 1.262207-3.0959473 1.857666z" fill="#180f30"/></svg>